<?xml version="1.0" standalone="no"?>
<!DOCTYPE svg PUBLIC "-//W3C//DTD SVG 20010904//EN"
 "http://www.w3.org/TR/2001/REC-SVG-20010904/DTD/svg10.dtd">
<svg version="1.0" xmlns="http://www.w3.org/2000/svg"
 width="900.000000pt" height="900.000000pt" viewBox="0 0 900.000000 900.000000"
 preserveAspectRatio="xMidYMid meet">

<g transform="translate(0.000000,900.000000) scale(0.100000,-0.100000)"
fill="#000000" stroke="none">
<path d="M3270 6122 c-174 -45 -302 -187 -332 -365 -30 -185 72 -382 242 -466
273 -133 587 27 641 328 33 186 -69 385 -241 469 -109 53 -198 63 -310 34z
m264 -116 c70 -34 138 -103 174 -176 24 -48 27 -67 27 -150 0 -83 -3 -102 -27
-150 -35 -71 -107 -143 -178 -178 -48 -24 -67 -27 -150 -27 -84 0 -102 3 -154
29 -74 36 -136 98 -173 173 -25 51 -28 69 -28 153 0 83 3 102 27 150 70 142
189 214 344 207 64 -3 93 -9 138 -31z"/>
<path d="M3297 6020 c-98 -25 -191 -104 -236 -200 -21 -45 -26 -70 -26 -140 0
-104 27 -170 99 -243 70 -72 141 -102 246 -102 77 0 92 3 152 33 76 37 125 88
166 172 23 47 27 68 27 140 0 72 -4 93 -27 140 -62 127 -163 197 -294 205 -38
2 -86 0 -107 -5z m233 -182 c47 -22 110 -70 110 -83 0 -15 -15 -35 -26 -35 -8
0 -34 16 -59 35 -104 79 -248 75 -360 -11 -40 -30 -68 -26 -63 8 4 28 81 82
147 103 70 22 183 15 251 -17z m-41 -98 c54 -29 71 -45 71 -68 0 -32 -23 -32
-69 -2 -74 50 -155 48 -227 -5 -22 -17 -35 -20 -47 -14 -26 15 -20 35 18 64
73 56 176 66 254 25z m-40 -95 c36 -18 46 -44 27 -63 -13 -13 -18 -13 -40 1
-32 21 -89 22 -106 2 -16 -19 -34 -19 -50 0 -10 13 -9 19 6 36 11 12 28 25 39
30 32 13 94 10 124 -6z m-41 -87 c7 -7 12 -21 12 -33 0 -12 -5 -26 -12 -33 -7
-7 -21 -12 -33 -12 -12 0 -26 5 -33 12 -7 7 -12 21 -12 33 0 12 5 26 12 33 7
7 21 12 33 12 12 0 26 -5 33 -12z"/>
<path d="M2899 5140 c-113 -20 -225 -105 -277 -210 -24 -49 -27 -66 -27 -155
0 -90 3 -105 28 -153 76 -144 246 -229 408 -203 70 12 150 46 197 85 l32 28 0
144 0 144 -160 0 -160 0 0 -60 0 -60 85 0 86 0 -3 -57 c-3 -55 -5 -59 -38 -75
-21 -10 -60 -17 -96 -18 -135 -1 -234 97 -234 230 0 94 68 191 155 220 61 20
146 9 205 -28 l51 -32 50 43 c27 23 49 45 49 49 0 14 -82 67 -134 86 -62 24
-155 33 -217 22z"/>
<path d="M1680 4781 l0 -361 133 0 c226 1 328 27 417 107 75 67 103 128 108
235 5 108 -14 171 -77 240 -92 103 -166 128 -403 135 l-178 6 0 -362z m373
205 c18 -7 47 -26 66 -42 92 -77 95 -242 5 -326 -44 -41 -93 -57 -198 -64
l-96 -7 0 225 c0 124 3 228 8 232 11 12 179 -2 215 -18z"/>
<path d="M2400 4780 l0 -360 75 0 75 0 0 360 0 360 -75 0 -75 0 0 -360z"/>
<path d="M3310 4780 l0 -360 75 0 75 0 0 360 0 360 -75 0 -75 0 0 -360z"/>
<path d="M2374 4269 c-10 -17 13 -36 27 -22 12 12 4 33 -11 33 -5 0 -12 -5
-16 -11z"/>
<path d="M2734 4269 c-8 -14 11 -33 25 -25 11 7 4 36 -9 36 -5 0 -12 -5 -16
-11z"/>
<path d="M5164 4269 c-10 -17 13 -36 27 -22 12 12 4 33 -11 33 -5 0 -12 -5
-16 -11z"/>
<path d="M6354 4269 c-3 -6 -2 -15 2 -19 12 -12 38 5 30 19 -9 14 -23 14 -32
0z"/>
<path d="M6564 4269 c-10 -17 13 -36 27 -22 12 12 4 33 -11 33 -5 0 -12 -5
-16 -11z"/>
<path d="M2130 4180 l0 -90 46 0 c73 0 112 34 79 70 -13 14 -14 22 -4 44 19
40 -10 66 -73 66 l-48 0 0 -90z m93 48 c8 -24 -5 -38 -34 -38 -24 0 -29 4 -29
25 0 21 5 25 29 25 16 0 31 -6 34 -12z m10 -74 c14 -15 -8 -34 -39 -34 -27 0
-34 4 -34 20 0 16 7 20 33 20 19 0 36 -3 40 -6z"/>
<path d="M2530 4235 c0 -33 -1 -34 -25 -23 -19 9 -29 8 -50 -6 -57 -38 -12
-136 50 -108 15 7 25 8 25 2 0 -6 7 -10 15 -10 12 0 15 17 15 90 0 73 -3 90
-15 90 -10 0 -15 -11 -15 -35z m-5 -80 c0 -27 -3 -30 -30 -30 -21 0 -31 5 -33
18 -6 33 6 49 35 45 24 -3 28 -8 28 -33z"/>
<path d="M3220 4180 c0 -73 3 -90 15 -90 10 0 15 10 15 34 0 50 9 66 36 66 22
0 24 -4 24 -50 0 -38 4 -50 15 -50 12 0 15 13 15 55 0 50 -3 57 -25 67 -19 9
-28 9 -37 0 -16 -16 -29 -15 -27 1 4 33 -2 57 -16 57 -12 0 -15 -17 -15 -90z"/>
<path d="M3603 4254 c-67 -33 -65 -116 3 -149 57 -27 104 -3 104 51 0 32 -2
34 -35 34 -24 0 -35 -5 -35 -15 0 -8 9 -15 20 -15 11 0 20 -7 20 -15 0 -38
-75 -29 -90 10 -20 52 31 101 78 76 15 -8 23 -8 28 0 17 28 -49 45 -93 23z"/>
<path d="M4450 4235 c0 -38 -2 -40 -31 -24 -41 21 -92 -38 -69 -80 16 -32 46
-44 72 -30 16 9 23 9 26 0 2 -6 10 -11 18 -11 11 0 14 19 14 90 0 73 -3 90
-15 90 -10 0 -15 -11 -15 -35z m-11 -63 c20 -38 -31 -71 -59 -37 -6 8 -9 23
-5 35 8 25 51 27 64 2z"/>
<path d="M4604 4256 c-68 -30 -66 -124 4 -153 28 -11 40 -12 63 -2 41 17 36
32 -8 25 -42 -7 -55 -1 -72 31 -24 47 30 99 77 74 15 -8 21 -7 25 3 4 10 -5
18 -25 25 -17 6 -31 11 -32 11 -1 -1 -15 -7 -32 -14z"/>
<path d="M5592 4189 c-18 -44 -32 -84 -32 -90 0 -15 27 -10 34 6 8 21 82 20
94 -1 5 -9 16 -14 25 -13 13 3 9 18 -20 92 -46 114 -59 115 -101 6z m67 -9
c10 -29 9 -30 -19 -30 -27 0 -28 1 -17 30 6 17 14 30 18 30 4 0 12 -13 18 -30z"/>
<path d="M6410 4180 c0 -73 3 -90 15 -90 8 0 15 4 15 10 0 6 10 5 25 -2 57
-26 102 55 55 102 -23 23 -33 24 -61 10 -17 -10 -19 -7 -19 25 0 24 -4 35 -15
35 -12 0 -15 -17 -15 -90z m95 -25 c0 -27 -3 -30 -30 -30 -21 0 -31 5 -33 18
-6 33 6 49 35 45 24 -3 28 -8 28 -33z"/>
<path d="M6618 4248 c-2 -13 -2 -53 0 -90 3 -51 7 -68 18 -68 11 0 14 19 14
90 0 71 -3 90 -14 90 -8 0 -16 -10 -18 -22z"/>
<path d="M3150 4235 c0 -8 -4 -15 -10 -15 -5 0 -10 -7 -10 -15 0 -8 5 -15 10
-15 6 0 10 -17 10 -39 0 -42 18 -65 44 -55 20 8 21 24 1 24 -10 0 -15 11 -15
35 0 19 5 35 10 35 6 0 10 7 10 15 0 8 -4 15 -10 15 -5 0 -10 7 -10 15 0 8 -7
15 -15 15 -8 0 -15 -7 -15 -15z"/>
<path d="M5090 4235 c0 -8 -4 -15 -10 -15 -5 0 -10 -7 -10 -15 0 -8 5 -15 10
-15 6 0 10 -17 10 -39 0 -42 18 -65 44 -55 20 8 21 24 1 24 -10 0 -15 11 -15
35 0 19 5 35 10 35 6 0 10 7 10 15 0 8 -4 15 -10 15 -5 0 -10 7 -10 15 0 8 -7
15 -15 15 -8 0 -15 -7 -15 -15z"/>
<path d="M6677 4228 c-7 -30 7 -116 21 -130 12 -12 42 -4 42 12 0 5 -7 10 -15
10 -10 0 -15 11 -15 35 0 24 5 35 15 35 8 0 15 6 15 13 1 17 14 -8 39 -71 l21
-53 -25 -9 c-34 -13 -32 -20 6 -20 32 0 31 -2 79 121 18 45 19 50 4 47 -9 -2
-24 -23 -34 -48 l-18 -45 -16 39 c-9 21 -16 42 -16 47 0 5 -16 9 -35 9 -24 0
-35 5 -35 15 0 24 -27 17 -33 -7z"/>
<path d="M2290 4155 c0 -51 3 -65 15 -65 11 0 15 12 15 46 0 37 4 47 20 51 11
3 20 12 20 20 0 11 -4 11 -20 3 -14 -7 -20 -7 -20 0 0 5 -7 10 -15 10 -12 0
-15 -14 -15 -65z"/>
<path d="M2380 4155 c0 -51 3 -65 15 -65 12 0 15 14 15 65 0 51 -3 65 -15 65
-12 0 -15 -14 -15 -65z"/>
<path d="M2602 4204 c-22 -15 -30 -57 -14 -80 12 -18 43 -24 64 -13 23 13 31
8 22 -15 -4 -11 -18 -16 -45 -16 -47 0 -52 -16 -8 -25 23 -5 38 -2 58 12 23
18 26 28 29 87 2 53 0 66 -12 66 -8 0 -18 -5 -21 -10 -4 -7 -12 -7 -25 0 -24
13 -21 13 -48 -6z m68 -29 c10 -12 10 -18 0 -30 -27 -32 -71 -8 -56 30 3 8 14
15 24 15 11 0 25 -7 32 -15z"/>
<path d="M2730 4155 c0 -51 3 -65 15 -65 12 0 15 14 15 65 0 51 -3 65 -15 65
-12 0 -15 -14 -15 -65z"/>
<path d="M2790 4155 c0 -50 3 -65 14 -65 11 0 16 14 18 48 3 43 5 47 28 47 23
0 25 -4 28 -47 2 -34 7 -48 18 -48 15 0 20 62 8 94 -10 26 -41 38 -64 26 -14
-7 -20 -7 -20 0 0 5 -7 10 -15 10 -12 0 -15 -14 -15 -65z"/>
<path d="M2952 4213 c-21 -8 -33 -50 -22 -77 11 -30 42 -41 71 -26 18 10 20 9
17 -7 -3 -14 -13 -18 -41 -18 -21 0 -37 -5 -37 -11 0 -19 49 -26 78 -12 25 12
27 18 30 86 2 59 0 72 -13 72 -8 0 -15 -5 -15 -10 0 -7 -6 -7 -19 0 -21 11
-29 11 -49 3z m63 -53 c0 -29 -34 -40 -54 -17 -18 23 -2 49 28 45 20 -2 26 -8
26 -28z"/>
<path d="M3375 4195 c-28 -27 -30 -37 -15 -65 15 -28 46 -42 75 -34 34 8 27
28 -10 29 -15 0 -30 6 -32 13 -3 8 9 12 40 12 40 0 45 2 40 20 -6 22 -40 50
-61 50 -7 0 -24 -11 -37 -25z m70 -15 c4 -6 -7 -10 -25 -10 -18 0 -29 4 -25
10 3 6 15 10 25 10 10 0 22 -4 25 -10z"/>
<path d="M3758 4213 c-31 -8 -19 -23 17 -23 25 0 35 -4 35 -16 0 -10 -5 -14
-15 -10 -25 9 -65 -11 -65 -33 0 -26 15 -34 67 -37 l43 -3 0 49 c0 39 -4 52
-22 64 -23 16 -29 17 -60 9z m52 -78 c0 -9 -7 -18 -16 -22 -18 -7 -39 11 -30
26 11 17 46 13 46 -4z"/>
<path d="M3860 4135 c0 -69 3 -85 15 -85 10 0 15 10 15 31 0 24 4 30 15 25 8
-3 22 -9 30 -12 16 -7 65 38 65 60 0 8 -11 27 -24 43 -22 25 -26 26 -52 14
-20 -9 -30 -9 -32 -2 -2 6 -10 11 -18 11 -11 0 -14 -18 -14 -85z m105 36 c9
-28 -5 -51 -30 -51 -32 0 -49 23 -35 49 14 27 56 28 65 2z"/>
<path d="M4098 4213 c-29 -7 -21 -21 14 -25 17 -2 33 -9 36 -17 3 -9 -1 -11
-16 -6 -28 8 -62 -11 -62 -35 0 -27 34 -44 60 -30 14 7 20 7 20 0 0 -5 7 -10
15 -10 11 0 15 12 15 49 0 40 -4 53 -22 65 -23 16 -29 17 -60 9z m52 -78 c0
-9 -7 -18 -16 -22 -18 -7 -39 11 -30 26 11 17 46 13 46 -4z"/>
<path d="M4210 4155 c0 -50 3 -65 14 -65 11 0 16 14 18 48 3 43 5 47 28 47 23
0 25 -4 28 -47 2 -34 7 -48 18 -48 15 0 20 62 8 94 -10 26 -41 38 -64 26 -14
-7 -20 -7 -20 0 0 5 -7 10 -15 10 -12 0 -15 -14 -15 -65z"/>
<path d="M4720 4155 c0 -51 3 -65 15 -65 11 0 15 12 15 46 0 37 4 47 20 51 11
3 20 12 20 20 0 11 -4 11 -20 3 -14 -7 -20 -7 -20 0 0 5 -7 10 -15 10 -12 0
-15 -14 -15 -65z"/>
<path d="M4825 4195 c-28 -27 -30 -37 -15 -65 15 -28 46 -42 75 -34 34 8 27
28 -10 29 -15 0 -30 6 -32 13 -3 8 9 12 40 12 40 0 45 2 40 20 -6 22 -40 50
-61 50 -7 0 -24 -11 -37 -25z m70 -15 c4 -6 -7 -10 -25 -10 -18 0 -29 4 -25
10 3 6 15 10 25 10 10 0 22 -4 25 -10z"/>
<path d="M4968 4213 c-29 -7 -21 -21 14 -25 17 -2 33 -9 36 -17 3 -9 -1 -11
-16 -6 -28 8 -62 -11 -62 -35 0 -27 34 -44 60 -30 14 7 20 7 20 0 0 -5 7 -10
15 -10 11 0 15 12 15 49 0 69 -23 90 -82 74z m50 -80 c-2 -10 -12 -18 -23 -18
-11 0 -21 8 -23 18 -3 13 3 17 23 17 20 0 26 -4 23 -17z"/>
<path d="M5160 4155 c0 -51 3 -65 15 -65 12 0 15 14 15 65 0 51 -3 65 -15 65
-12 0 -15 -14 -15 -65z"/>
<path d="M5220 4155 c0 -50 3 -65 14 -65 11 0 16 14 18 48 3 43 5 47 28 47 23
0 25 -4 28 -47 2 -34 7 -48 18 -48 22 0 19 82 -5 111 -16 21 -22 22 -45 11
-15 -7 -26 -8 -26 -2 0 6 -7 10 -15 10 -12 0 -15 -14 -15 -65z"/>
<path d="M5382 4213 c-21 -8 -33 -50 -22 -77 11 -30 42 -41 71 -26 18 10 20 9
17 -7 -3 -14 -13 -18 -41 -18 -21 0 -37 -5 -37 -11 0 -19 49 -26 78 -12 25 12
27 18 30 86 2 59 0 72 -13 72 -8 0 -15 -5 -15 -10 0 -7 -6 -7 -19 0 -21 11
-29 11 -49 3z m63 -53 c0 -20 -6 -26 -26 -28 -17 -2 -29 3 -32 12 -11 28 4 47
32 44 20 -2 26 -8 26 -28z"/>
<path d="M5779 4213 c-20 -5 -42 -45 -37 -68 1 -10 15 -27 30 -38 24 -18 31
-19 54 -8 32 14 25 25 -19 25 -29 1 -32 4 -32 31 0 27 3 30 40 35 38 5 39 6
18 18 -22 12 -26 13 -54 5z"/>
<path d="M5903 4210 c-28 -11 -46 -45 -38 -71 10 -30 48 -51 79 -43 34 8 28
28 -9 29 -36 0 -54 27 -35 50 8 10 23 15 37 12 27 -5 42 11 22 24 -17 11 -27
10 -56 -1z"/>
<path d="M6005 4195 c-28 -27 -30 -37 -14 -66 13 -25 50 -40 78 -32 30 8 20
27 -14 28 -15 0 -30 6 -32 13 -3 8 9 12 40 12 40 0 45 2 40 20 -6 22 -40 50
-61 50 -7 0 -24 -11 -37 -25z m70 -15 c4 -6 -7 -10 -25 -10 -18 0 -29 4 -25
10 3 6 15 10 25 10 10 0 22 -4 25 -10z"/>
<path d="M6139 4201 c-19 -15 -21 -21 -11 -34 7 -8 24 -18 37 -21 36 -9 31
-28 -7 -24 -41 4 -48 -18 -8 -26 69 -13 97 42 35 68 -43 18 -45 30 -5 24 32
-5 43 15 14 26 -24 9 -30 8 -55 -13z"/>
<path d="M6245 4204 c-21 -22 -15 -36 23 -53 41 -18 41 -35 2 -29 -40 6 -49
-8 -16 -24 20 -8 32 -8 51 0 37 17 32 49 -10 66 -43 18 -45 30 -5 24 35 -5 49
17 17 26 -34 9 -44 7 -62 -10z"/>
<path d="M6350 4155 c0 -51 3 -65 15 -65 12 0 15 14 15 65 0 51 -3 65 -15 65
-12 0 -15 -14 -15 -65z"/>
<path d="M6560 4155 c0 -51 3 -65 15 -65 12 0 15 14 15 65 0 51 -3 65 -15 65
-12 0 -15 -14 -15 -65z"/>
</g>
</svg>
